<svg width="60" height="59" viewBox="0 0 60 59" fill="none" xmlns="http://www.w3.org/2000/svg">
<rect x="0.5" width="59" height="59" rx="29.5" fill="#FEF3EB"/>
<path d="M29.8262 30.2051C30.3785 30.2051 30.8262 29.7574 30.8262 29.2051C30.8262 28.6528 30.3785 28.2051 29.8262 28.2051C29.2739 28.2051 28.8262 28.6528 28.8262 29.2051C28.8262 29.7574 29.2739 30.2051 29.8262 30.2051Z" stroke="#F68235" stroke-width="2" stroke-linecap="round" stroke-linejoin="round"/>
<path d="M36.8262 30.2051C37.3785 30.2051 37.8262 29.7574 37.8262 29.2051C37.8262 28.6528 37.3785 28.2051 36.8262 28.2051C36.2739 28.2051 35.8262 28.6528 35.8262 29.2051C35.8262 29.7574 36.2739 30.2051 36.8262 30.2051Z" stroke="#F68235" stroke-width="2" stroke-linecap="round" stroke-linejoin="round"/>
<path d="M22.8262 30.2051C23.3785 30.2051 23.8262 29.7574 23.8262 29.2051C23.8262 28.6528 23.3785 28.2051 22.8262 28.2051C22.2739 28.2051 21.8262 28.6528 21.8262 29.2051C21.8262 29.7574 22.2739 30.2051 22.8262 30.2051Z" stroke="#F68235" stroke-width="2" stroke-linecap="round" stroke-linejoin="round"/>
</svg>
