<svg width="27" height="27" viewBox="0 0 27 27" fill="none" xmlns="http://www.w3.org/2000/svg">
<ellipse cx="13.572" cy="13.4353" rx="12.8571" ry="12.8571" fill="#E93740"/>
<path fill-rule="evenodd" clip-rule="evenodd" d="M11.644 11.1623H14.4295V12.5498C14.8308 11.7518 15.8598 11.0348 17.4055 11.0348C20.3688 11.0348 21.0723 12.6233 21.0723 15.5378V20.9355H18.0723V16.2015C18.0723 14.5418 17.671 13.6058 16.6495 13.6058C15.2328 13.6058 14.644 14.6145 14.644 16.2008V20.9355H11.644V11.1623ZM6.49977 20.808H9.49977V11.0348H6.49977V20.808ZM9.92952 7.84805C9.92963 8.0995 9.87976 8.34847 9.78281 8.58049C9.68585 8.8125 9.54375 9.02293 9.36477 9.19955C9.00207 9.56001 8.51112 9.76179 7.99977 9.76055C7.48931 9.7602 6.9995 9.55895 6.63627 9.2003C6.45792 9.02308 6.31631 8.81241 6.21952 8.58037C6.12274 8.34833 6.0727 8.09947 6.07227 7.84805C6.07227 7.3403 6.27477 6.8543 6.63702 6.4958C6.99993 6.13667 7.48995 5.93532 8.00052 5.93555C8.51202 5.93555 9.00252 6.1373 9.36477 6.4958C9.72627 6.8543 9.92952 7.3403 9.92952 7.84805Z" fill="white"/>
</svg>
