<svg width="60" height="59" viewBox="0 0 60 59" fill="none" xmlns="http://www.w3.org/2000/svg">
<rect x="0.5" width="59" height="59" rx="29.5" fill="#FDEBEC"/>
<path d="M24.5 28L28.5 19C29.2956 19 30.0587 19.3161 30.6213 19.8787C31.1839 20.4413 31.5 21.2044 31.5 22V26H37.16C37.4499 25.9967 37.7371 26.0565 38.0016 26.1752C38.2661 26.2939 38.5016 26.4687 38.6919 26.6875C38.8821 26.9063 39.0225 27.1638 39.1033 27.4423C39.1842 27.7207 39.2035 28.0134 39.16 28.3L37.78 37.3C37.7077 37.7769 37.4654 38.2116 37.0979 38.524C36.7304 38.8364 36.2623 39.0055 35.78 39H24.5M24.5 28V39M24.5 28H21.5C20.9696 28 20.4609 28.2107 20.0858 28.5858C19.7107 28.9609 19.5 29.4696 19.5 30V37C19.5 37.5304 19.7107 38.0391 20.0858 38.4142C20.4609 38.7893 20.9696 39 21.5 39H24.5" stroke="#E93740" stroke-width="2" stroke-linecap="round" stroke-linejoin="round"/>
</svg>
