<svg width="60" height="59" viewBox="0 0 60 59" fill="none" xmlns="http://www.w3.org/2000/svg">
<rect x="0.5" width="59" height="59" rx="29.5" fill="#EAF2F9"/>
<path d="M29.5 18V40" stroke="#2D7BC0" stroke-width="2" stroke-linecap="round" stroke-linejoin="round"/>
<path d="M34.5 22H27C26.0717 22 25.1815 22.3687 24.5251 23.0251C23.8687 23.6815 23.5 24.5717 23.5 25.5C23.5 26.4283 23.8687 27.3185 24.5251 27.9749C25.1815 28.6313 26.0717 29 27 29H32C32.9283 29 33.8185 29.3687 34.4749 30.0251C35.1313 30.6815 35.5 31.5717 35.5 32.5C35.5 33.4283 35.1313 34.3185 34.4749 34.9749C33.8185 35.6313 32.9283 36 32 36H23.5" stroke="#2D7BC0" stroke-width="2" stroke-linecap="round" stroke-linejoin="round"/>
</svg>
