<svg width="27" height="27" viewBox="0 0 27 27" fill="none" xmlns="http://www.w3.org/2000/svg">
<circle cx="13.7146" cy="13.4353" r="12.8571" fill="#E93740"/>
<path d="M20.9018 9.72042C20.8164 9.40241 20.649 9.1124 20.4163 8.87941C20.1836 8.64643 19.8938 8.47865 19.5759 8.39286C18.4057 8.07813 13.7148 8.07812 13.7148 8.07812C13.7148 8.07812 9.024 8.07812 7.85379 8.39118C7.53575 8.47669 7.2458 8.64438 7.01307 8.87741C6.78034 9.11044 6.61301 9.4006 6.5279 9.71875C6.21484 10.8906 6.21484 13.3348 6.21484 13.3348C6.21484 13.3348 6.21484 15.779 6.5279 16.9492C6.70033 17.5954 7.20926 18.1044 7.85379 18.2768C9.024 18.5915 13.7148 18.5915 13.7148 18.5915C13.7148 18.5915 18.4057 18.5915 19.5759 18.2768C20.2221 18.1044 20.7294 17.5954 20.9018 16.9492C21.2148 15.779 21.2148 13.3348 21.2148 13.3348C21.2148 13.3348 21.2148 10.8906 20.9018 9.72042ZM12.2249 15.5781V11.0915L16.1088 13.3181L12.2249 15.5781Z" fill="white"/>
</svg>
