<svg width="27" height="27" viewBox="0 0 27 27" fill="none" xmlns="http://www.w3.org/2000/svg">
<ellipse cx="13.2849" cy="13.4353" rx="12.8571" ry="12.8571" fill="#E93740"/>
<path d="M20.7851 8.52794C20.2235 8.79037 19.6278 8.96255 19.0178 9.03872C19.6603 8.63322 20.1411 7.99513 20.3706 7.24338C19.7667 7.62154 19.1058 7.88784 18.4166 8.03072C18.1287 7.70679 17.7807 7.44868 17.3943 7.27239C17.008 7.0961 16.5914 7.00538 16.1704 7.00586C14.471 7.00586 13.093 8.4589 13.093 10.2518C13.093 10.5059 13.1203 10.7539 13.1729 10.9917C10.6152 10.8563 8.34772 9.56389 6.82986 7.59986C6.55618 8.09525 6.41237 8.65851 6.41318 9.23186C6.41278 9.76627 6.53754 10.2925 6.77637 10.7638C7.01521 11.2352 7.36072 11.6369 7.78222 11.9335C7.29361 11.9171 6.81577 11.7779 6.38844 11.5275C6.38805 11.5411 6.38805 11.5544 6.38805 11.5684C6.38805 13.1406 7.44873 14.4525 8.85633 14.751C8.40309 14.8805 7.92787 14.8994 7.46665 14.8065C7.85819 16.0958 8.99464 17.0346 10.3413 17.0609C9.25117 17.9632 7.90504 18.4526 6.51935 18.4504C6.27098 18.4504 6.02612 18.4352 5.78516 18.405C7.19224 19.3586 8.82987 19.8648 10.5024 19.863C16.1628 19.863 19.2581 14.9173 19.2581 10.6284C19.2581 10.4879 19.255 10.3475 19.2492 10.208C19.852 9.74899 20.3721 9.18002 20.7851 8.52794Z" fill="white"/>
</svg>
