<svg width="26" height="26" viewBox="0 0 26 26" fill="none" xmlns="http://www.w3.org/2000/svg">
<ellipse cx="12.8571" cy="13.1501" rx="12.8571" ry="12.8571" fill="#E93740"/>
<path d="M12.8554 10.6493C11.4783 10.6493 10.3544 11.7732 10.3544 13.1504C10.3544 14.5276 11.4783 15.6515 12.8554 15.6515C14.2326 15.6515 15.3564 14.5276 15.3564 13.1504C15.3564 11.7732 14.2326 10.6493 12.8554 10.6493ZM20.3566 13.1504C20.3566 12.1147 20.366 11.0884 20.3078 10.0545C20.2496 8.85374 19.9757 7.78802 19.0976 6.90992C18.2177 6.02995 17.1539 5.7579 15.9531 5.69973C14.9174 5.64157 13.8911 5.65095 12.8573 5.65095C11.8216 5.65095 10.7953 5.64157 9.7615 5.69973C8.56071 5.7579 7.49501 6.03183 6.61693 6.90992C5.73698 7.78989 5.46493 8.85374 5.40676 10.0545C5.3486 11.0902 5.35798 12.1166 5.35798 13.1504C5.35798 14.1842 5.3486 15.2124 5.40676 16.2462C5.46493 17.447 5.73886 18.5128 6.61693 19.3909C7.49689 20.2708 8.56071 20.5429 9.7615 20.601C10.7972 20.6592 11.8235 20.6498 12.8573 20.6498C13.893 20.6498 14.9193 20.6592 15.9531 20.601C17.1539 20.5429 18.2196 20.269 19.0976 19.3909C19.9776 18.5109 20.2496 17.447 20.3078 16.2462C20.3678 15.2124 20.3566 14.1861 20.3566 13.1504ZM12.8554 16.9986C10.7259 16.9986 9.00725 15.28 9.00725 13.1504C9.00725 11.0208 10.7259 9.30217 12.8554 9.30217C14.9849 9.30217 16.7036 11.0208 16.7036 13.1504C16.7036 15.28 14.9849 16.9986 12.8554 16.9986ZM16.8612 10.0433C16.364 10.0433 15.9624 9.64177 15.9624 9.14456C15.9624 8.64735 16.364 8.24583 16.8612 8.24583C17.3584 8.24583 17.7599 8.64735 17.7599 9.14456C17.76 9.26262 17.7369 9.37956 17.6918 9.48866C17.6467 9.59777 17.5805 9.6969 17.497 9.78039C17.4135 9.86387 17.3144 9.93007 17.2053 9.97518C17.0962 10.0203 16.9792 10.0434 16.8612 10.0433Z" fill="white"/>
</svg>
